# xmcd
#
# Track frame offsets: 
#        150
#        12415
#        26653
#        40500
#        54692
#        72021
#        85209
#        108639
#        128127
#        148219
#        162075
#        173400
#        188468
#        205156
#        219346
#        233655
#        252133
#        270915
#        287489
#        303634
#
# Disc length: 4192 seconds
#
# Revision: 1
# Processed by: cddbd v1.5.2PL0 Copyright (c) Steve Scherf et al.
# Submitted via: ExactAudioCopy v0.95b4
#
DISCID=0b105e14
DTITLE=Don Walser - Dare to Dream: The Best of Don Walser
DYEAR=2001
DGENRE=Country
TTITLE0=Rolling Stone from Texas
TTITLE1=The John Deere Tractor Song
TTITLE2=Cowpoke
TTITLE3=Shotgun Boogie
TTITLE4=Whispering Pines
TTITLE5=Texas Top Hand
TTITLE6=Danny Boy
TTITLE7=Rose Marie
TTITLE8=Hot Rod Mercury
TTITLE9=Please Help Me I'm Falling
TTITLE10=Arkansas
TTITLE11=Fool Such as I
TTITLE12=We Could, You and I
TTITLE13=Big Ball's in Cowtown
TTITLE14=Legend in My Time
TTITLE15=I Really Don't Want to Know
TTITLE16=Truck Drivin' Man
TTITLE17=Love Song of the Waterfall
TTITLE18=I Ain't Got Nobody
TTITLE19=Rolling Stone from Texas (live)
EXTD=Donald Ray Walser (1934-09-14/2006-09-20): vocals\nCD: Texas Musi
EXTD=c Group/Lone Star Records TMG-LS 4007 (2001-10-30), UPC 049891400
EXTD=728.
EXTT0=
EXTT1=
EXTT2=
EXTT3=
EXTT4=
EXTT5=
EXTT6=
EXTT7=
EXTT8=
EXTT9=
EXTT10=
EXTT11=
EXTT12=
EXTT13=
EXTT14=
EXTT15=
EXTT16=
EXTT17=
EXTT18=
EXTT19=
PLAYORDER=
